# xmcd
#
# Track frame offsets:
#	150
#	9377
#	23680
#	37157
#	51557
#	62497
#	77952
#	88225
#	106377
#	117732
#	133020
#	142685
#
# Disc length: 2092 seconds
#
# Revision: 3
# Processed by: cddbd v1.4PL0 Copyright (c) Steve Scherf et al.
# Submitted via: audiograbber 1.81.02
#
DISCID=a5082a0c
DTITLE=Larry Stephenson Band - On Fire
DYEAR=1998
DGENRE=Bluegrass
TTITLE0=The Sound (That Set My Soul On Fire)
TTITLE1=I'Ve Got A Yearning
TTITLE2=I Will Allways Be Waiting for You
TTITLE3=I Know One
TTITLE4=Nothing Can Stop Me
TTITLE5=What Will I Do Without You
TTITLE6=Whose Heart Are You Breakning Tonight
TTITLE7=Patches
TTITLE8=My Wild Irish Rose
TTITLE9=Bridge Washed Out
TTITLE10=What Am I Waiting For
TTITLE11=Knoxvile Girl
EXTD=
EXTT0=
EXTT1=
EXTT2=
EXTT3=
EXTT4=
EXTT5=
EXTT6=
EXTT7=
EXTT8=
EXTT9=
EXTT10=
EXTT11=
PLAYORDER=
